<svg width="2444" height="2501" viewBox="0 0 2444 2501" fill="none" xmlns="http://www.w3.org/2000/svg">
<g clip-path="url(#clip0_24_4)">
<path d="M2443.96 1278.21C2443.96 1175.73 2435.64 1100.95 2417.65 1023.39H1247.39V1485.95H1934.3C1920.46 1600.9 1845.67 1774.02 1679.48 1890.34L1677.15 1905.83L2047.16 2192.47L2072.8 2195.03C2308.23 1977.6 2443.96 1657.68 2443.96 1278.21" fill="#4285F4"/>
<path d="M1247.39 2496.94C1583.92 2496.94 1866.44 2386.15 2072.8 2195.03L1679.48 1890.34C1574.23 1963.74 1432.96 2014.99 1247.39 2014.99C917.778 2014.99 638.026 1797.56 538.302 1497.03L523.685 1498.27L138.939 1796.03L133.908 1810.02C338.874 2217.18 759.891 2496.94 1247.39 2496.94Z" fill="#34A853"/>
<path d="M538.302 1497.03C511.989 1419.48 496.761 1336.38 496.761 1250.52C496.761 1164.65 511.989 1081.55 536.918 1004L536.221 987.482L146.654 684.94L133.908 691.003C49.4313 859.966 0.958496 1049.7 0.958496 1250.52C0.958496 1451.33 49.4313 1641.06 133.908 1810.02L538.302 1497.03" fill="#FBBC05"/>
<path d="M1247.39 486.037C1481.43 486.037 1639.31 587.136 1729.34 671.622L2081.11 328.16C1865.06 127.347 1583.92 4.08813 1247.39 4.08813C759.891 4.08813 338.874 283.84 133.908 691.003L536.918 1004C638.026 703.473 917.778 486.037 1247.39 486.037" fill="#EB4335"/>
</g>
<defs>
<clipPath id="clip0_24_4">
<rect width="2443" height="2500" fill="white" transform="translate(0.958496 0.516602)"/>
</clipPath>
</defs>
</svg>
